<svg width="190" height="38" viewBox="0 0 190 38" fill="none" xmlns="http://www.w3.org/2000/svg">
<mask id="mask0_105_161" style="mask-type:luminance" maskUnits="userSpaceOnUse" x="0" y="0" width="190" height="38">
<path d="M190 0H0V38H190V0Z" fill="white"/>
</mask>
<g mask="url(#mask0_105_161)">
<path d="M43.4004 12.9H49.4004V28.4H53.1004V12.9H59.1004V9.70001H43.4004V12.9Z" fill="#1F1925"/>
<path d="M73.4996 17.2H65.3996V9.70001H61.5996V28.3H65.3996V20.4H73.4996V28.3H77.2996V9.80001H73.4996V17.2Z" fill="#1F1925"/>
<path d="M84.1 20.4H92.2V17.4H84.1V13H93.2V9.79999H80.3V28.4H93.5V25.2H84.1V20.4Z" fill="#1F1925"/>
<path d="M113.9 18.6C114.9 18.2 116.7 17 116.7 14.3C116.7 11.6 114.7 9.59998 111.5 9.59998H103.3V28.2H111.9C115.1 28.2 117.5 26.2 117.5 23.1C117.3 20.6 115.5 19.1 113.9 18.6ZM106.8 12.7H110.3C111.9 12.7 113 13.5 113 15.1C113 16.6 112.1 17.5 110.5 17.5H107V12.7H106.8ZM110.8 25.5H106.7V20.3H110.6C112.4 20.3 113.5 21.2 113.5 23C113.5 24.6 112.5 25.5 110.8 25.5Z" fill="#1F1925"/>
<path d="M123.6 9.79999H120V28.4H132.8V25.1H123.7V9.79999H123.6Z" fill="#1F1925"/>
<path d="M142.9 9.59998C137.6 9.59998 133.7 13.3 133.7 19.1C133.7 24.9 137.6 28.5 142.9 28.5C148.2 28.5 152.1 24.8 152.1 19C152.1 13.2 148.1 9.59998 142.9 9.59998ZM142.9 25.2C139.9 25.2 137.5 22.9 137.5 19C137.5 15.1 139.9 12.8 142.9 12.8C145.9 12.8 148.3 15.1 148.3 19C148.3 22.9 145.9 25.2 142.9 25.2Z" fill="#1F1925"/>
<path d="M163 12.8C166 12.8 167.3 14.6 167.7 16.6H171.4C171 12.5 168.4 9.5 163 9.5C157.9 9.5 154.3 13.3 154.3 19C154.3 24.8 158 28.5 163 28.5C168.4 28.5 171 25.5 171.4 21.4H167.7C167.4 23.4 166.2 25.2 163.1 25.2C160.2 25.2 158 22.9 158 19C158 15.2 160.2 12.8 163 12.8Z" fill="#1F1925"/>
<path d="M182.7 17.7L189.5 9.70001H185.1L177.5 18.9V9.70001H173.8V28.3H177.5V23.4L180.2 20.4L185.8 28.4H190.1L182.7 17.7Z" fill="#1F1925"/>
<path d="M15.7 36L0.6 29.8C0.1 29.5 0 29.5 0 28.9V8.9C0 8.4 0.1 8.3 0.6 8L15.7 2.2C16.2 2.1 16.3 2.1 16.8 2.2L31.9 8C32.4 8.3 32.5 8.4 32.5 8.9V29C32.5 29.5 32.4 29.6 31.9 29.9L16.8 36C16.3 36.1 16.2 36.2 15.7 36ZM16.2 34.3L29.4 29.1L16.2 24.3L3 29L16.2 34.3ZM1.8 27.7L13.7 23.3L11.5 22.4C11.4 22.3 11.2 22.1 11.2 22V15.8C11.2 15.5 11.3 15.4 11.5 15.4L13.7 14.5L1.8 10V27.7ZM30.7 27.7V10.1L18.8 14.5L21 15.4C21.1 15.5 21.3 15.7 21.3 15.8V22C21.3 22.1 21.2 22.4 21 22.4L18.8 23.3L30.7 27.7ZM16.2 22.3L19.4 21V16.6L16.2 15.3L13 16.6V21L16.2 22.3ZM16.2 13.6L29.4 8.8L16.2 3.7L3 8.7L16.2 13.6Z" fill="#1F1925"/>
<path d="M31.7996 8.1L16.6996 2.1C16.5996 2.1 16.2996 2 16.1996 2C16.0996 2 15.7996 2 15.6996 2.1L0.599609 8.1C0.299609 8.1 0.0996094 8.5 0.0996094 8.9V29C0.0996094 29.4 0.399609 29.6 0.599609 29.8L15.4996 35.9C15.5996 35.9 15.8996 36 15.9996 36C16.0996 36 16.3996 36 16.4996 35.9L31.3996 29.8C31.6996 29.7 31.8996 29.4 31.8996 29V8.9C32.2996 8.5 31.9996 8.1 31.7996 8.1ZM16.1996 3.5L29.7996 8.7L16.1996 13.6L2.59961 8.7L16.1996 3.5ZM16.1996 15.2L19.4996 16.6V21.2L16.1996 22.6L12.8996 21.2V16.6L16.1996 15.2ZM1.59961 9.9L13.9996 14.6L11.4996 15.6C11.3996 15.6 11.1996 15.7 11.1996 15.9V22C11.1996 22.1 11.2996 22.3 11.2996 22.3L13.7996 23.3L1.49961 27.9V9.9H1.59961ZM16.1996 34.5L2.69961 29L16.2996 24.1L29.7996 29L16.1996 34.5ZM30.7996 27.9L18.3996 23.3L20.8996 22.3C20.9996 22.3 20.9996 22.2 20.9996 22V15.7C20.9996 15.6 20.8996 15.4 20.8996 15.4L18.3996 14.4L30.7996 9.7V27.9Z" fill="#1F1925"/>
</g>
</svg>
