<svg width="126" height="25" viewBox="0 0 126 25" fill="none" xmlns="http://www.w3.org/2000/svg">
<g clip-path="url(#clip0_105_152)">
<path fill-rule="evenodd" clip-rule="evenodd" d="M68.4483 0L60.9927 13.1856L53.5303 0H48.3751V24.3871H53.4903V9.75571L60.9894 23.0039L68.5153 9.70606V24.3871H73.7159V0H68.4483Z" fill="#BA74FF"/>
<path fill-rule="evenodd" clip-rule="evenodd" d="M119.721 0L100.582 24.3871H106.638L125.784 0H119.721Z" fill="#BA74FF"/>
<path fill-rule="evenodd" clip-rule="evenodd" d="M100.588 0L119.728 24.3871H125.712L106.628 0H100.588Z" fill="#BA74FF"/>
<path fill-rule="evenodd" clip-rule="evenodd" d="M0 0.083374L6.55751 6.66963H18.9767L12.4191 0.083374H0Z" fill="#BA74FF"/>
<path fill-rule="evenodd" clip-rule="evenodd" d="M17.3135 17.4717L24.1157 24.3027H36.534L29.7326 17.4717H17.3135Z" fill="#BA74FF"/>
<path fill-rule="evenodd" clip-rule="evenodd" d="M24.1145 0.083374L0 24.3007H12.4191L36.5336 0.083374H24.1145Z" fill="#BA74FF"/>
<path fill-rule="evenodd" clip-rule="evenodd" d="M75.3358 0L86.58 19.8869L88.9916 14.2822L80.9091 0H75.3358Z" fill="#BA74FF"/>
<path fill-rule="evenodd" clip-rule="evenodd" d="M93.791 0L81.7481 24.3871H87.3084L99.3513 0H93.791Z" fill="#BA74FF"/>
</g>
<defs>
<clipPath id="clip0_105_152">
<rect width="126" height="24.3871" fill="white"/>
</clipPath>
</defs>
</svg>
