<svg width="170" height="44" viewBox="0 0 170 44" fill="none" xmlns="http://www.w3.org/2000/svg">
<g clip-path="url(#clip0_105_124)">
<path d="M1.47559 13.1716V30.1444C1.47559 31.1848 2.08079 32.2252 2.95119 32.742L17.6732 41.2284C18.6252 41.7452 19.754 41.7452 20.706 41.2284L35.428 32.742C36.38 32.2252 36.9036 31.1848 36.9036 30.1444V13.1716C36.9036 12.1312 36.2984 11.0908 35.428 10.574L20.6992 2.08761C19.7472 1.57081 18.6184 1.57081 17.6664 2.08761L2.94439 10.574C1.99239 11.0908 1.47559 12.1312 1.47559 13.1716Z" fill="black"/>
<path d="M22.4327 24.9491L20.3519 30.6679C20.2635 30.8379 20.2635 31.0147 20.3519 31.1847L23.9899 41.0583L28.1447 38.6307L23.1195 24.9491C23.0379 24.6023 22.6027 24.6023 22.4327 24.9491Z" fill="#BA74FF"/>
<path d="M26.5874 15.2524C26.499 14.9056 26.0706 14.9056 25.8938 15.2524L23.813 20.9712C23.7246 21.1412 23.7246 21.318 23.813 21.488L29.7018 37.6856L33.8566 35.258L26.5874 15.2524Z" fill="#BA74FF"/>
<path d="M19.1416 2.69277C19.23 2.69277 19.3116 2.69278 19.4 2.78117L35.3324 11.9612C35.5024 12.0496 35.5908 12.2196 35.5908 12.478V30.838C35.5908 31.008 35.5024 31.2732 35.3324 31.3548L19.4 40.5348C19.3116 40.6232 19.23 40.6232 19.1416 40.6232C19.0532 40.6232 18.9716 40.6232 18.8832 40.5348L2.95077 31.3548C2.78077 31.2664 2.69237 31.0964 2.69237 30.838V12.478C2.69237 12.308 2.78077 12.0428 2.95077 11.9612L18.8832 2.78117C18.9648 2.69278 19.0532 2.69277 19.1416 2.69277ZM19.1416 0.0067749C18.5364 0.0067749 18.0128 0.176775 17.496 0.441975L1.56357 9.62197C0.523169 10.2272 -0.0820312 11.2676 -0.0820312 12.478V30.838C-0.0820312 31.9668 0.523169 33.0888 1.56357 33.694L17.496 42.874C18.0128 43.1324 18.5364 43.3092 19.1416 43.3092C19.7468 43.3092 20.2704 43.1392 20.7872 42.874L36.7196 33.694C37.76 33.0888 38.3652 32.0484 38.3652 30.838V12.478C38.3652 11.3492 37.76 10.2272 36.7196 9.62197L20.8688 0.441975C20.352 0.183575 19.8284 0.0067749 19.2232 0.0067749H19.1416Z" fill="#BA74FF"/>
<path d="M8.66211 37.6788L10.1309 33.694L13.0753 36.1216L10.3077 38.7192L8.66211 37.6788Z" fill="#BA74FF"/>
<path d="M17.8431 11.1791H13.7699C13.5115 11.1791 13.1647 11.3491 13.0763 11.6143L4.41992 35.3395L8.57472 37.7671L18.1015 11.6959C18.1899 11.4375 18.0131 11.1791 17.7547 11.1791H17.8431Z" fill="#BA74FF"/>
<path d="M24.8543 11.1791H20.7811C20.5227 11.1791 20.1759 11.3491 20.0875 11.6143L10.2207 38.6307L14.3755 41.0583L25.1127 11.6143C25.2011 11.3559 25.0243 11.0975 24.7659 11.0975L24.8543 11.1791Z" fill="#BA74FF"/>
<path d="M55.5149 16.116C55.9501 16.116 56.2969 16.2044 56.5553 16.3744C56.8137 16.5444 57.0721 16.8912 57.3373 17.3264L62.6209 26.8532C62.7093 26.9416 62.7093 27.0232 62.6209 27.1116C62.6209 27.2 62.5325 27.2 62.3625 27.2H60.3701C60.2001 27.2 60.1117 27.1116 60.0233 27.03L58.8877 24.9492H51.4417L50.3129 27.03C50.2245 27.2 50.1429 27.2 49.9661 27.2H47.8853C47.7153 27.2 47.6269 27.2 47.6269 27.1116C47.6269 27.0232 47.6269 26.9416 47.6269 26.8532L52.8221 17.3264C53.0805 16.8096 53.3389 16.5444 53.6041 16.3744C53.8693 16.2044 54.1209 16.116 54.4677 16.116H55.4197H55.5149ZM52.3937 23.1336H57.8473L55.3381 18.4552C55.2497 18.3668 55.2497 18.3668 55.1681 18.3668H55.0797C54.9913 18.3668 54.9097 18.3668 54.9097 18.4552L52.3937 23.1336Z" fill="#BA74FF"/>
<path d="M74.1331 16.116C75.3435 16.116 76.2139 16.3744 76.7307 16.9796C77.2475 17.4964 77.5127 18.3668 77.5127 19.4072V20.2708C77.5127 21.2228 77.3427 21.9164 76.9959 22.4332C76.6491 22.95 76.0439 23.2968 75.1803 23.4736L77.8663 26.8532C77.9547 26.9416 77.9547 27.0232 77.9547 27.1116C77.9547 27.2 77.8663 27.2816 77.6963 27.2816H75.6155C75.4455 27.2816 75.3571 27.2816 75.3571 27.1932C75.2687 27.1932 75.2687 27.1048 75.1871 27.0232L72.6779 23.732H67.5711V26.9348C67.5711 27.1932 67.4827 27.2816 67.2243 27.2816H65.4903C65.2319 27.2816 65.1435 27.1932 65.1435 26.9348V16.6328C65.1435 16.286 65.3135 16.116 65.6603 16.116H74.2351H74.1331ZM67.5507 21.828H73.6095C74.1263 21.828 74.5615 21.7396 74.7383 21.4812C74.9967 21.2228 75.0851 20.876 75.0851 20.4408V19.7472C75.0851 19.2304 74.9967 18.8836 74.7383 18.7068C74.4799 18.4484 74.1331 18.36 73.6095 18.36H67.7207C67.5507 18.36 67.5507 18.4484 67.5507 18.53V21.828Z" fill="#BA74FF"/>
<path d="M90.8486 16.116C91.9774 16.116 92.7526 16.3744 93.1878 16.8096C93.623 17.2448 93.8814 17.9384 93.8814 18.802V19.584C93.8814 20.4476 93.5346 21.1412 92.841 21.5764C93.5346 22.0116 93.9698 22.7052 93.9698 23.6572V24.6092C93.9698 25.0444 93.8814 25.3912 93.7998 25.738C93.7182 26.0848 93.5414 26.3432 93.3646 26.6016C93.1062 26.86 92.8478 27.0368 92.501 27.1184C92.1542 27.2068 91.719 27.2884 91.2022 27.2884H81.7638C81.417 27.2884 81.247 27.1184 81.247 26.7716V16.6396C81.247 16.2928 81.417 16.1228 81.7638 16.1228H90.9438H90.8486V16.116ZM83.661 20.706H90.155C90.6718 20.706 91.0186 20.6176 91.1954 20.4476C91.3722 20.2776 91.4538 20.1008 91.4538 19.754V19.2372C91.4538 18.8904 91.3654 18.632 91.1954 18.5436C91.0254 18.3736 90.6786 18.2852 90.3318 18.2852H83.8378C83.6678 18.2852 83.6678 18.3736 83.6678 18.4552V20.706H83.661ZM83.661 22.44V24.7792C83.661 24.9492 83.7494 24.9492 83.831 24.9492H90.325C90.7602 24.9492 91.0186 24.8608 91.1886 24.6908C91.3586 24.5208 91.447 24.2556 91.447 23.9972V23.392C91.447 23.0452 91.3586 22.7868 91.1886 22.61C91.0186 22.4332 90.6718 22.3516 90.0598 22.3516H83.5726L83.661 22.44Z" fill="#BA74FF"/>
<path d="M99.8513 16.116C100.11 16.116 100.198 16.2044 100.198 16.4628V26.8532C100.198 27.1116 100.11 27.2 99.8513 27.2H98.1173C97.8589 27.2 97.7705 27.1116 97.7705 26.8532V16.4628C97.7705 16.2044 97.8589 16.116 98.1173 16.116H99.8513Z" fill="#BA74FF"/>
<path d="M116.566 16.116C116.824 16.116 116.913 16.2044 116.913 16.4628V18.02C116.913 18.2784 116.824 18.3668 116.566 18.3668H111.541V26.8532C111.541 27.1116 111.452 27.2 111.194 27.2H109.46C109.202 27.2 109.113 27.1116 109.113 26.8532V18.3668H104.088C103.83 18.3668 103.741 18.2784 103.741 18.02V16.4628C103.741 16.2044 103.83 16.116 104.088 16.116H116.471H116.566Z" fill="#BA74FF"/>
<path d="M129.125 16.116C130.336 16.116 131.206 16.3744 131.723 16.9796C132.24 17.4964 132.505 18.3668 132.505 19.4072V20.2708C132.505 21.2228 132.335 21.9164 131.988 22.4332C131.641 22.95 131.036 23.2968 130.172 23.4736L132.858 26.8532C132.947 26.9416 132.947 27.0232 132.947 27.1116C132.947 27.2 132.858 27.2816 132.688 27.2816H130.608C130.438 27.2816 130.349 27.2816 130.349 27.1932C130.261 27.1932 130.261 27.1048 130.179 27.0232L127.67 23.732H122.563V26.9348C122.563 27.1932 122.475 27.2816 122.216 27.2816H120.482C120.224 27.2816 120.136 27.1932 120.136 26.9348V16.6328C120.136 16.286 120.306 16.116 120.652 16.116H129.227H129.125ZM122.543 21.828H128.602C129.118 21.828 129.554 21.7396 129.73 21.4812C129.989 21.2228 130.077 20.876 130.077 20.4408V19.7472C130.077 19.2304 129.989 18.8836 129.73 18.7068C129.472 18.4484 129.125 18.36 128.602 18.36H122.713C122.543 18.36 122.543 18.4484 122.543 18.53V21.828Z" fill="#BA74FF"/>
<path d="M138.047 16.116C138.305 16.116 138.393 16.2044 138.393 16.4628V22.7868C138.393 23.222 138.393 23.5688 138.482 23.8272C138.57 24.0856 138.652 24.344 138.829 24.5208C139.005 24.6976 139.175 24.7792 139.434 24.8676C139.692 24.956 140.039 24.956 140.474 24.956H144.894C145.329 24.956 145.676 24.956 145.935 24.8676C146.193 24.7792 146.451 24.6976 146.54 24.5208C146.71 24.3508 146.798 24.0856 146.887 23.8272C146.975 23.5688 146.975 23.222 146.975 22.7868V16.4628C146.975 16.2044 147.063 16.116 147.322 16.116H149.056C149.314 16.116 149.403 16.2044 149.403 16.4628V23.0452C149.403 23.8272 149.314 24.4324 149.144 24.9492C148.974 25.466 148.709 25.9012 148.362 26.248C148.015 26.5948 147.58 26.8532 146.975 26.9416C146.37 27.1116 145.765 27.2 144.894 27.2H140.304C139.522 27.2 138.829 27.1116 138.223 26.9416C137.707 26.7716 137.183 26.5064 136.836 26.248C136.489 25.9012 136.231 25.466 136.054 24.9492C135.884 24.4324 135.796 23.7388 135.796 23.0452V16.4628C135.796 16.2044 135.884 16.116 136.143 16.116H137.877H138.047Z" fill="#BA74FF"/>
<path d="M156.23 16.116C156.488 16.116 156.665 16.116 156.835 16.2044C157.005 16.2044 157.182 16.2928 157.27 16.3744C157.359 16.4628 157.529 16.5444 157.617 16.7212C157.706 16.8912 157.787 17.068 157.964 17.3264L161.255 24.9492C161.344 25.0376 161.344 25.1192 161.514 25.1192H161.684C161.772 25.1192 161.854 25.0308 161.942 24.9492L165.233 17.3264C165.322 17.068 165.403 16.8912 165.58 16.7212C165.668 16.5512 165.75 16.4628 165.927 16.3744C166.015 16.286 166.185 16.2044 166.362 16.2044C166.539 16.2044 166.709 16.116 166.967 16.116H168.701C169.218 16.116 169.653 16.2044 169.83 16.4628C170 16.7212 170.088 17.1564 170.088 17.7616V26.8532C170.088 27.1116 170 27.2 169.742 27.2H168.096C167.838 27.2 167.749 27.1116 167.749 26.8532V18.5436C167.749 18.4552 167.661 18.3736 167.661 18.3736H167.491C167.402 18.3736 167.321 18.462 167.321 18.462L164.118 25.5612C164.03 25.8196 163.86 26.078 163.683 26.2548C163.506 26.4316 163.424 26.6016 163.248 26.7716C163.078 26.86 162.901 27.03 162.731 27.03C162.561 27.1184 162.296 27.1184 162.037 27.1184H161.255C160.997 27.1184 160.738 27.1184 160.562 27.03C160.385 26.9416 160.215 26.86 160.045 26.7716C159.875 26.6832 159.786 26.5132 159.61 26.2548C159.44 26.0848 159.351 25.8196 159.174 25.5612L155.972 18.462C155.972 18.3736 155.883 18.3736 155.802 18.3736H155.632C155.543 18.3736 155.543 18.462 155.543 18.5436V26.86C155.543 27.1184 155.455 27.2068 155.196 27.2068H153.544C153.286 27.2068 153.197 27.1184 153.197 26.86V17.7616C153.197 17.1564 153.286 16.7212 153.456 16.4628C153.626 16.2044 154.061 16.116 154.584 16.116H156.318H156.23Z" fill="#BA74FF"/>
</g>
<defs>
<clipPath id="clip0_105_124">
<rect width="170" height="43.316" fill="white"/>
</clipPath>
</defs>
</svg>
