<svg width="250" height="74" viewBox="0 0 250 74" fill="none" xmlns="http://www.w3.org/2000/svg">
<path d="M40.7744 40.6404C40.0581 41.0781 39.2224 41.1577 38.5857 40.7996C37.7898 40.322 37.3123 39.2476 37.3123 37.7751V33.2783C37.3123 31.1294 36.4766 29.5774 35.0439 29.1794C32.6165 28.4631 30.7859 31.4478 30.1094 32.562L25.8115 39.4465V30.9702C25.7717 29.0203 25.135 27.8662 23.9412 27.5081C23.1453 27.2693 21.9514 27.3887 20.7974 29.1397L11.2068 44.5005C9.93335 42.073 9.25684 39.3669 9.25684 36.6211C9.25684 27.3489 16.6985 19.8276 25.8115 19.8276C34.9246 19.8276 42.3662 27.3489 42.3662 36.6211V36.6609V36.7007C42.4458 38.4915 41.8887 39.9241 40.7744 40.6404ZM46.0273 36.6211V36.5813V36.5415C45.9876 25.2795 36.9143 16.0869 25.8115 16.0869C14.6689 16.0869 5.5957 25.2795 5.5957 36.6211C5.5957 47.9229 14.6689 57.1553 25.8115 57.1553C30.9451 57.1553 35.8001 55.2053 39.5408 51.6636C40.2969 50.9473 40.3367 49.7932 39.6204 49.0371C38.9438 48.281 37.7898 48.2412 37.0337 48.9177C37.0337 48.9177 37.0337 48.9177 36.9939 48.9575C33.9695 51.8228 29.9104 53.4543 25.7319 53.4543C20.8372 53.4543 16.4597 51.3054 13.4353 47.8831L22.0708 34.0344V40.4414C22.0708 43.5056 23.2646 44.5005 24.2595 44.7791C25.2544 45.0576 26.7666 44.8587 28.3982 42.272L33.1338 34.5916C33.293 34.3528 33.4124 34.114 33.5715 33.9548V37.8547C33.5715 40.72 34.7256 43.0281 36.7153 44.1423C38.5061 45.177 40.7744 45.0576 42.6448 43.9036C44.9529 42.3914 46.1865 39.7649 46.0273 36.6211ZM74.2021 29.6172C74.6797 29.8958 75.1174 30.5723 75.1174 31.1692C75.1174 32.1243 74.3215 32.9202 73.4062 32.9202C73.1675 32.9202 72.9685 32.8406 72.7695 32.8008C71.6951 32.0049 70.342 31.4876 68.9094 31.4876C65.5269 31.4876 63.2188 34.2334 63.2188 37.6558C63.2188 41.0781 65.5667 43.7842 68.9094 43.7842C70.5808 43.7842 72.093 43.1077 73.2073 42.0332C73.4858 41.8342 73.844 41.7148 74.2021 41.7148C75.1174 41.7148 75.8337 42.4312 75.8337 43.3464C75.8337 43.9434 75.4756 44.4607 75.0378 44.7393C73.4062 46.1321 71.2175 47.0474 68.9492 47.0474C63.7759 47.0474 59.5576 42.7893 59.5576 37.5364C59.5576 32.2834 63.7759 28.0254 68.9492 28.0254C70.8594 27.9856 72.6899 28.5825 74.2021 29.6172ZM83.6733 33.5967C87.2151 33.5967 90.1599 36.5813 90.1599 40.2822C90.1599 43.9434 87.1753 47.0872 83.6733 47.0872C79.9724 47.0872 76.9082 43.9832 76.9082 40.2822C76.9082 36.5813 79.9724 33.5967 83.6733 33.5967ZM83.6335 43.7842C85.1855 43.7842 86.4988 42.3118 86.4988 40.322C86.4988 38.3323 85.1855 37.0588 83.6335 37.0588C81.9622 37.0588 80.5693 38.2925 80.5693 40.322C80.5693 42.272 81.9622 43.7842 83.6335 43.7842ZM92.3884 45.0178V35.6262C92.3884 34.5916 93.1843 33.7559 94.219 33.7559C95.2139 33.7559 96.0496 34.5916 96.0496 35.6262V45.0178C96.0496 46.0525 95.2139 46.8882 94.219 46.8882C93.2241 46.8882 92.3884 46.0127 92.3884 45.0178ZM92.1099 30.2141C92.1099 28.9805 93.0649 28.0254 94.219 28.0254C95.4128 28.0254 96.3679 29.0203 96.3679 30.2141C96.3679 31.408 95.4128 32.363 94.219 32.363C93.0251 32.3232 92.1099 31.3682 92.1099 30.2141ZM103.053 39.9241V45.0178C103.053 46.0525 102.218 46.8882 101.223 46.8882C100.228 46.8882 99.3923 46.0525 99.3923 45.0178V35.1885C99.3923 34.3926 100.029 33.7559 100.825 33.7559C101.621 33.7559 102.218 34.4324 102.218 35.1885C103.69 33.7957 105.003 33.5967 106.237 33.5967C109.898 33.5967 111.53 36.3425 111.53 39.4863V45.0178C111.53 46.0525 110.694 46.8882 109.699 46.8882C108.704 46.8882 107.869 46.0525 107.869 45.0178V39.9241C107.869 38.3323 107.67 36.9792 105.362 36.9792C103.73 36.9792 103.053 38.3323 103.053 39.9241ZM123.389 41.874C122.951 41.874 122.672 41.6751 122.434 41.3965L118.176 36.7803V45.0178C118.176 46.0525 117.34 46.8882 116.345 46.8882C115.35 46.8882 114.514 46.0525 114.514 45.0178V28.7019C114.634 28.4233 114.912 28.2244 115.191 28.2244C115.509 28.2244 115.788 28.5029 115.987 28.7019L122.792 36.3425C122.991 36.5813 123.229 36.7007 123.389 36.7007C123.508 36.7007 123.787 36.5813 123.986 36.3425L130.791 28.7019C130.989 28.5029 131.228 28.2244 131.586 28.2244C131.905 28.2244 132.183 28.4233 132.263 28.7019V45.0178C132.263 46.0525 131.467 46.8882 130.432 46.8882C129.437 46.8882 128.602 46.0525 128.602 45.0178V36.7803L124.344 41.3965C124.025 41.6751 123.747 41.874 123.389 41.874ZM140.978 43.7842C142.61 43.7842 144.002 42.3118 144.002 40.322C144.002 38.3323 142.57 37.019 140.978 37.019C139.386 37.019 138.073 38.3721 138.073 40.322C138.073 42.2322 139.346 43.7842 140.978 43.7842ZM144.878 45.4556L144.798 45.0178C144.082 46.4107 141.814 47.0474 140.381 47.0474C136.959 47.0474 134.412 43.9434 134.412 40.2424C134.412 36.5813 136.999 33.5569 140.58 33.5569C141.177 33.5569 143.246 33.7161 144.838 35.5864L144.918 35.1487C144.918 34.3528 145.515 33.7161 146.311 33.7161C147.106 33.7161 147.743 34.3926 147.743 35.1487V45.4158C147.743 46.2117 147.106 46.8484 146.311 46.8484C145.475 46.8882 144.878 46.2117 144.878 45.4556ZM157.811 36.9792H157.413C155.105 37.0986 154.667 38.4119 154.667 39.9241V45.0178C154.667 46.0525 153.832 46.8882 152.837 46.8882C151.842 46.8882 151.006 46.0525 151.006 45.0178V35.1885C151.006 34.3926 151.643 33.7559 152.439 33.7559C153.235 33.7559 153.832 34.4324 153.832 35.1885C155.185 33.915 156.299 33.6365 157.413 33.5967H157.771C158.647 33.5967 159.443 34.3528 159.443 35.3079C159.483 36.1834 158.687 36.9792 157.811 36.9792ZM171.938 44.1423C172.098 44.4209 172.217 44.6995 172.217 45.0178C172.217 45.9729 171.342 46.8484 170.386 46.8484C169.75 46.8484 169.193 46.3709 168.755 45.8137L164.537 40.9189V44.978C164.537 46.0127 163.701 46.8484 162.706 46.8484C161.711 46.8484 160.875 46.0127 160.875 44.978V30.0549C160.875 29.0203 161.671 28.1846 162.706 28.1846C163.741 28.1846 164.537 29.0203 164.537 30.0549V39.3669L168.755 34.7109C169.193 34.2334 169.71 33.7161 170.347 33.7161C171.262 33.7161 172.098 34.5518 172.098 35.5068C172.098 35.7854 172.018 36.1038 171.859 36.3425L168.516 40.0037L171.938 44.1423ZM179.102 37.019C178.107 37.019 176.475 37.5364 176.475 39.0884H181.768C181.728 37.5364 180.057 37.019 179.102 37.019ZM183.877 41.4363H176.475C176.475 43.625 178.584 43.9832 179.5 43.9832C180.176 43.9832 181.131 43.8638 181.887 43.5056C182.126 43.3464 182.484 43.2271 182.842 43.2271C183.638 43.2271 184.315 43.9036 184.315 44.7393C184.315 45.2964 183.957 45.7739 183.519 46.0525C182.405 46.8882 180.932 47.0872 179.539 47.0872C175.838 47.0872 172.774 45.0974 172.774 40.4414C172.774 36.7803 174.645 33.5967 179.022 33.5967C182.564 33.5967 185.23 35.9048 185.31 40.0037C185.31 40.7598 184.673 41.4363 183.877 41.4363ZM194.064 47.0474H193.07C190.284 47.0474 188.652 45.8137 188.652 41.4761V36.9792H187.697C186.822 36.9792 186.066 36.1834 186.066 35.3079C186.066 34.3528 186.862 33.5967 187.697 33.5967H188.652V30.1345C188.652 29.0999 189.448 28.2642 190.483 28.2642C191.478 28.2642 192.313 29.0999 192.313 30.1345V33.5967H193.826C194.701 33.5967 195.457 34.3528 195.457 35.3079C195.457 36.1834 194.661 36.9792 193.826 36.9792H192.313V40.7598C192.313 43.2668 192.433 43.7842 193.547 43.7842H194.064C194.94 43.7842 195.696 44.5005 195.696 45.4158C195.696 46.2913 194.94 47.0474 194.064 47.0474ZM211.773 29.6172C212.251 29.8958 212.688 30.5723 212.688 31.1692C212.688 32.1243 211.893 32.9202 210.977 32.9202C210.739 32.9202 210.54 32.8406 210.341 32.8008C209.266 32.0049 207.913 31.4876 206.48 31.4876C203.098 31.4876 200.79 34.2334 200.79 37.6558C200.79 41.0781 203.138 43.7842 206.48 43.7842C208.152 43.7842 209.664 43.1077 210.778 42.0332C211.057 41.8342 211.415 41.7148 211.773 41.7148C212.688 41.7148 213.405 42.4312 213.405 43.3464C213.405 43.9434 213.047 44.4607 212.609 44.7393C210.977 46.1321 208.789 47.0474 206.52 47.0474C201.347 47.0474 197.129 42.7893 197.129 37.5364C197.129 32.2834 201.347 28.0254 206.52 28.0254C208.43 27.9856 210.301 28.5825 211.773 29.6172ZM221.045 43.7842C222.677 43.7842 224.07 42.3118 224.07 40.322C224.07 38.3323 222.637 37.019 221.045 37.019C219.414 37.019 218.14 38.3721 218.14 40.322C218.14 42.2322 219.454 43.7842 221.045 43.7842ZM224.945 45.4556L224.866 45.0178C224.149 46.4107 221.881 47.0474 220.448 47.0474C217.026 47.0474 214.479 43.9434 214.479 40.2424C214.479 36.5813 217.066 33.5569 220.647 33.5569C221.244 33.5569 223.314 33.7161 224.906 35.5864L224.985 35.1487C224.985 34.3528 225.582 33.7161 226.378 33.7161C227.174 33.7161 227.811 34.3926 227.811 35.1487V45.4158C227.811 46.2117 227.174 46.8484 226.378 46.8484C225.542 46.8882 224.945 46.2117 224.945 45.4556ZM237.799 43.7842C239.431 43.7842 240.704 42.2322 240.704 40.322C240.704 38.3323 239.391 37.019 237.799 37.019C236.167 37.019 234.775 38.3323 234.775 40.322C234.775 42.3118 236.167 43.7842 237.799 43.7842ZM234.775 45.9729V50.6289C234.775 51.6636 233.939 52.4993 232.944 52.4993C231.949 52.4993 231.114 51.6636 231.114 50.6289V35.1885C231.114 34.3926 231.75 33.7559 232.546 33.7559C233.342 33.7559 233.939 34.4324 233.939 35.3477C235.292 33.9548 236.963 33.5967 238.237 33.5967C241.779 33.5967 244.405 36.5813 244.405 40.2822C244.405 43.9434 241.898 47.0872 238.436 47.0872C237.361 47.0474 235.77 46.729 234.775 45.9729Z" fill="#BA74FF"/>
</svg>
