<svg width="178" height="43" viewBox="0 0 178 43" fill="none" xmlns="http://www.w3.org/2000/svg">
<rect y="0.330566" width="178" height="42.3389" rx="21.1694" fill="url(#paint0_linear_105_31)"/>
<path d="M32.1352 23.6863C31.7456 23.9244 31.291 23.9677 30.9447 23.7729C30.5118 23.5131 30.252 22.9287 30.252 22.1278V19.6817C30.252 18.5128 29.7975 17.6686 29.0182 17.4522C27.6978 17.0625 26.702 18.686 26.3341 19.2921L23.9963 23.0369V18.4262C23.9746 17.3656 23.6283 16.7378 22.9789 16.543C22.546 16.4132 21.8966 16.4781 21.2689 17.4305L16.0521 25.786C15.3594 24.4655 14.9915 22.9936 14.9915 21.5C14.9915 16.4564 19.0393 12.3653 23.9963 12.3653C28.9533 12.3653 33.0011 16.4564 33.0011 21.5V21.5217V21.5433C33.0444 22.5174 32.7413 23.2966 32.1352 23.6863ZM34.9925 21.5V21.4784V21.4567C34.9709 15.3308 30.0356 10.3306 23.9963 10.3306C17.9353 10.3306 13 15.3308 13 21.5C13 27.6475 17.9353 32.6695 23.9963 32.6695C26.7886 32.6695 29.4295 31.6088 31.4642 29.6823C31.8755 29.2926 31.8971 28.6649 31.5075 28.2536C31.1395 27.8424 30.5118 27.8207 30.1005 28.1887C30.1005 28.1887 30.1005 28.1887 30.0789 28.2103C28.4337 29.7689 26.2258 30.6564 23.953 30.6564C21.2905 30.6564 18.9094 29.4875 17.2643 27.6259L21.9615 20.093V23.578C21.9615 25.2448 22.6109 25.786 23.1521 25.9375C23.6932 26.089 24.5158 25.9808 25.4033 24.5738L27.9792 20.3961C28.0658 20.2662 28.1307 20.1363 28.2173 20.0497V22.171C28.2173 23.7296 28.845 24.985 29.9273 25.5911C30.9014 26.1539 32.1352 26.089 33.1526 25.4613C34.4081 24.6387 35.0791 23.2101 34.9925 21.5Z" fill="white"/>
<path d="M50.9676 27.256C49.933 27.256 49.021 27.0213 48.2316 26.552C47.4423 26.072 46.8236 25.3947 46.3756 24.52C45.9276 23.6347 45.7036 22.5733 45.7036 21.336C45.7036 20.12 45.9223 19.0693 46.3596 18.184C46.797 17.288 47.4103 16.6 48.1996 16.12C48.989 15.6293 49.917 15.384 50.9836 15.384C52.4343 15.384 53.5596 15.7467 54.3596 16.472C55.1596 17.1867 55.6823 18.1893 55.9276 19.48L53.7516 19.592C53.613 18.8453 53.3143 18.2587 52.8556 17.832C52.397 17.4053 51.773 17.192 50.9836 17.192C50.3436 17.192 49.789 17.3627 49.3196 17.704C48.8503 18.0453 48.4876 18.5253 48.2316 19.144C47.9756 19.7627 47.8476 20.4933 47.8476 21.336C47.8476 22.1893 47.9756 22.9253 48.2316 23.544C48.4983 24.152 48.8663 24.6213 49.3356 24.952C49.805 25.2827 50.349 25.448 50.9676 25.448C51.8103 25.448 52.461 25.2187 52.9196 24.76C53.389 24.2907 53.6876 23.6507 53.8156 22.84L55.9916 22.952C55.8423 23.8373 55.5543 24.6053 55.1276 25.256C54.701 25.896 54.1356 26.392 53.4316 26.744C52.7383 27.0853 51.917 27.256 50.9676 27.256ZM61.2851 27.192C60.4425 27.192 59.7011 27.0107 59.0611 26.648C58.4318 26.2747 57.9411 25.752 57.5891 25.08C57.2478 24.408 57.0771 23.624 57.0771 22.728C57.0771 21.8213 57.2478 21.0373 57.5891 20.376C57.9411 19.704 58.4318 19.1867 59.0611 18.824C59.7011 18.4507 60.4425 18.264 61.2851 18.264C62.1278 18.264 62.8638 18.4507 63.4931 18.824C64.1225 19.1867 64.6078 19.704 64.9491 20.376C65.3011 21.0373 65.4771 21.8213 65.4771 22.728C65.4771 23.624 65.3011 24.408 64.9491 25.08C64.6078 25.752 64.1225 26.2747 63.4931 26.648C62.8638 27.0107 62.1278 27.192 61.2851 27.192ZM61.2851 25.528C61.9465 25.528 62.4531 25.2827 62.8051 24.792C63.1678 24.3013 63.3491 23.6133 63.3491 22.728C63.3491 21.8533 63.1678 21.1707 62.8051 20.68C62.4531 20.1787 61.9465 19.928 61.2851 19.928C60.6238 19.928 60.1118 20.1787 59.7491 20.68C59.3865 21.1707 59.2051 21.8533 59.2051 22.728C59.2051 23.6133 59.3865 24.3013 59.7491 24.792C60.1118 25.2827 60.6238 25.528 61.2851 25.528ZM67.0575 27V18.456H69.1055V27H67.0575ZM67.0255 17.32V15.496H69.1535V17.32H67.0255ZM71.4794 27V18.456H73.3354L73.4154 20.856L73.1754 20.76C73.2607 20.1627 73.4367 19.6827 73.7034 19.32C73.97 18.9573 74.2954 18.6907 74.6794 18.52C75.0634 18.3493 75.4847 18.264 75.9434 18.264C76.5727 18.264 77.1007 18.4027 77.5274 18.68C77.9647 18.9573 78.2954 19.3413 78.5194 19.832C78.7434 20.312 78.8554 20.872 78.8554 21.512V27H76.8074V22.168C76.8074 21.688 76.7594 21.2827 76.6634 20.952C76.5674 20.6213 76.4074 20.3707 76.1834 20.2C75.97 20.0187 75.682 19.928 75.3194 19.928C74.7754 19.928 74.338 20.12 74.0074 20.504C73.6874 20.888 73.5274 21.4427 73.5274 22.168V27H71.4794ZM81.1081 27V15.64H83.9081L87.0441 24.44L90.1801 15.64H92.9801V27H90.9001V19.16L88.0361 26.984H86.0521L83.1881 19.16V27H81.1081ZM97.7094 27.192C96.8134 27.192 96.0934 26.9893 95.5494 26.584C95.0054 26.168 94.7334 25.592 94.7334 24.856C94.7334 24.12 94.9627 23.544 95.4214 23.128C95.88 22.712 96.5787 22.4133 97.5174 22.232L100.349 21.672C100.349 21.064 100.211 20.6107 99.9334 20.312C99.656 20.0027 99.2454 19.848 98.7014 19.848C98.2107 19.848 97.8214 19.9653 97.5334 20.2C97.256 20.424 97.064 20.7493 96.9574 21.176L94.8774 21.08C95.048 20.1733 95.464 19.48 96.1254 19C96.7867 18.5093 97.6454 18.264 98.7014 18.264C99.9174 18.264 100.835 18.5733 101.453 19.192C102.083 19.8 102.397 20.6747 102.397 21.816V24.92C102.397 25.144 102.435 25.2987 102.509 25.384C102.595 25.4693 102.717 25.512 102.877 25.512H103.149V27C103.085 27.0213 102.979 27.0373 102.829 27.048C102.691 27.0587 102.547 27.064 102.397 27.064C102.045 27.064 101.731 27.0107 101.453 26.904C101.176 26.7867 100.963 26.5893 100.813 26.312C100.664 26.024 100.589 25.6347 100.589 25.144L100.765 25.272C100.68 25.6453 100.493 25.9813 100.205 26.28C99.928 26.568 99.576 26.792 99.1494 26.952C98.7227 27.112 98.2427 27.192 97.7094 27.192ZM98.1254 25.704C98.584 25.704 98.9787 25.6133 99.3094 25.432C99.64 25.2507 99.896 25 100.077 24.68C100.259 24.36 100.349 23.9813 100.349 23.544V23.064L98.1414 23.512C97.6827 23.608 97.352 23.752 97.1494 23.944C96.9574 24.1253 96.8614 24.3653 96.8614 24.664C96.8614 24.9947 96.968 25.2507 97.1814 25.432C97.4054 25.6133 97.72 25.704 98.1254 25.704ZM104.479 27V18.456H106.399L106.479 20.824L106.303 20.792C106.431 19.9707 106.671 19.3787 107.023 19.016C107.386 18.6427 107.877 18.456 108.495 18.456H109.279V20.216H108.479C108.042 20.216 107.679 20.28 107.391 20.408C107.103 20.536 106.885 20.7387 106.735 21.016C106.597 21.2827 106.527 21.6347 106.527 22.072V27H104.479ZM110.604 27V15.64H112.652V22.312L116.156 18.456H118.684L115.34 22.008L118.796 27H116.492L113.996 23.224L112.652 24.648V27H110.604ZM123.316 27.192C122.463 27.192 121.721 27.0107 121.092 26.648C120.463 26.2747 119.977 25.752 119.636 25.08C119.295 24.408 119.124 23.624 119.124 22.728C119.124 21.832 119.295 21.0533 119.636 20.392C119.977 19.72 120.457 19.1973 121.076 18.824C121.705 18.4507 122.436 18.264 123.268 18.264C124.079 18.264 124.788 18.4453 125.396 18.808C126.015 19.1707 126.489 19.6933 126.82 20.376C127.151 21.0587 127.316 21.88 127.316 22.84V23.304H121.252C121.295 24.0507 121.497 24.616 121.86 25C122.233 25.3733 122.724 25.56 123.332 25.56C123.791 25.56 124.169 25.4587 124.468 25.256C124.777 25.0427 124.991 24.7493 125.108 24.376L127.204 24.504C126.969 25.336 126.505 25.992 125.812 26.472C125.129 26.952 124.297 27.192 123.316 27.192ZM121.252 21.928H125.204C125.161 21.2347 124.964 20.7227 124.612 20.392C124.26 20.0507 123.812 19.88 123.268 19.88C122.724 19.88 122.271 20.056 121.908 20.408C121.556 20.76 121.337 21.2667 121.252 21.928ZM132.044 27C131.191 27 130.561 26.8027 130.156 26.408C129.761 26.0133 129.564 25.3947 129.564 24.552V16.456H131.612V24.36C131.612 24.7547 131.697 25.032 131.868 25.192C132.039 25.3413 132.305 25.416 132.668 25.416H133.868V27H132.044ZM128.22 20.04V18.456H133.868V20.04H128.22ZM140.28 27.256C139.245 27.256 138.333 27.0213 137.544 26.552C136.755 26.072 136.136 25.3947 135.688 24.52C135.24 23.6347 135.016 22.5733 135.016 21.336C135.016 20.12 135.235 19.0693 135.672 18.184C136.109 17.288 136.723 16.6 137.512 16.12C138.301 15.6293 139.229 15.384 140.296 15.384C141.747 15.384 142.872 15.7467 143.672 16.472C144.472 17.1867 144.995 18.1893 145.24 19.48L143.064 19.592C142.925 18.8453 142.627 18.2587 142.168 17.832C141.709 17.4053 141.085 17.192 140.296 17.192C139.656 17.192 139.101 17.3627 138.632 17.704C138.163 18.0453 137.8 18.5253 137.544 19.144C137.288 19.7627 137.16 20.4933 137.16 21.336C137.16 22.1893 137.288 22.9253 137.544 23.544C137.811 24.152 138.179 24.6213 138.648 24.952C139.117 25.2827 139.661 25.448 140.28 25.448C141.123 25.448 141.773 25.2187 142.232 24.76C142.701 24.2907 143 23.6507 143.128 22.84L145.304 22.952C145.155 23.8373 144.867 24.6053 144.44 25.256C144.013 25.896 143.448 26.392 142.744 26.744C142.051 27.0853 141.229 27.256 140.28 27.256ZM149.397 27.192C148.501 27.192 147.781 26.9893 147.237 26.584C146.693 26.168 146.421 25.592 146.421 24.856C146.421 24.12 146.65 23.544 147.109 23.128C147.568 22.712 148.266 22.4133 149.205 22.232L152.037 21.672C152.037 21.064 151.898 20.6107 151.621 20.312C151.344 20.0027 150.933 19.848 150.389 19.848C149.898 19.848 149.509 19.9653 149.221 20.2C148.944 20.424 148.752 20.7493 148.645 21.176L146.565 21.08C146.736 20.1733 147.152 19.48 147.813 19C148.474 18.5093 149.333 18.264 150.389 18.264C151.605 18.264 152.522 18.5733 153.141 19.192C153.77 19.8 154.085 20.6747 154.085 21.816V24.92C154.085 25.144 154.122 25.2987 154.197 25.384C154.282 25.4693 154.405 25.512 154.565 25.512H154.837V27C154.773 27.0213 154.666 27.0373 154.517 27.048C154.378 27.0587 154.234 27.064 154.085 27.064C153.733 27.064 153.418 27.0107 153.141 26.904C152.864 26.7867 152.65 26.5893 152.501 26.312C152.352 26.024 152.277 25.6347 152.277 25.144L152.453 25.272C152.368 25.6453 152.181 25.9813 151.893 26.28C151.616 26.568 151.264 26.792 150.837 26.952C150.41 27.112 149.93 27.192 149.397 27.192ZM149.813 25.704C150.272 25.704 150.666 25.6133 150.997 25.432C151.328 25.2507 151.584 25 151.765 24.68C151.946 24.36 152.037 23.9813 152.037 23.544V23.064L149.829 23.512C149.37 23.608 149.04 23.752 148.837 23.944C148.645 24.1253 148.549 24.3653 148.549 24.664C148.549 24.9947 148.656 25.2507 148.869 25.432C149.093 25.6133 149.408 25.704 149.813 25.704ZM156.167 29.4V18.456H158.135L158.183 20.28L157.975 20.184C158.188 19.5547 158.535 19.08 159.015 18.76C159.506 18.4293 160.076 18.264 160.727 18.264C161.538 18.264 162.21 18.4667 162.743 18.872C163.287 19.2773 163.692 19.816 163.959 20.488C164.226 21.16 164.359 21.9067 164.359 22.728C164.359 23.5493 164.22 24.296 163.943 24.968C163.676 25.64 163.271 26.1787 162.727 26.584C162.194 26.9893 161.522 27.192 160.711 27.192C160.284 27.192 159.884 27.1173 159.511 26.968C159.148 26.8187 158.834 26.6053 158.567 26.328C158.311 26.0507 158.13 25.7253 158.023 25.352L158.215 25.192V29.4H156.167ZM160.231 25.528C160.85 25.528 161.335 25.2827 161.687 24.792C162.05 24.2907 162.231 23.6027 162.231 22.728C162.231 21.8533 162.05 21.1707 161.687 20.68C161.335 20.1787 160.85 19.928 160.231 19.928C159.815 19.928 159.458 20.0347 159.159 20.248C158.86 20.4507 158.626 20.76 158.455 21.176C158.295 21.592 158.215 22.1093 158.215 22.728C158.215 23.3467 158.295 23.864 158.455 24.28C158.615 24.696 158.844 25.0107 159.143 25.224C159.452 25.4267 159.815 25.528 160.231 25.528Z" fill="white"/>
<defs>
<linearGradient id="paint0_linear_105_31" x1="94" y1="8.00001" x2="94" y2="54" gradientUnits="userSpaceOnUse">
<stop stop-color="#3F5FFF"/>
<stop offset="1" stop-color="#0B34FF"/>
</linearGradient>
</defs>
</svg>
