<svg width="16" height="17" viewBox="0 0 16 17" fill="none" xmlns="http://www.w3.org/2000/svg">
<path d="M13.5535 3.31854C12.5178 2.83396 11.4104 2.48178 10.2526 2.28125C10.1104 2.53832 9.94429 2.88409 9.82976 3.15915C8.599 2.97406 7.37956 2.97406 6.17144 3.15915C6.05693 2.88409 5.88704 2.53832 5.74357 2.28125C4.58454 2.48178 3.47584 2.83525 2.44013 3.3211C0.351095 6.47791 -0.215207 9.5563 0.0679444 12.591C1.4535 13.6257 2.79627 14.2542 4.11638 14.6655C4.44233 14.2169 4.73302 13.7401 4.98345 13.2375C4.5065 13.0563 4.04969 12.8326 3.61805 12.573C3.73256 12.4882 3.84457 12.3995 3.95279 12.3082C6.58546 13.5396 9.44593 13.5396 12.0472 12.3082C12.1566 12.3995 12.2686 12.4882 12.3819 12.573C11.949 12.8339 11.4909 13.0576 11.014 13.2388C11.2644 13.7401 11.5538 14.2182 11.881 14.6668C13.2024 14.2555 14.5464 13.627 15.932 12.591C16.2642 9.07301 15.3644 6.02289 13.5535 3.31854ZM5.34212 10.7247C4.55181 10.7247 3.9037 9.98688 3.9037 9.08843C3.9037 8.18998 4.53797 7.45091 5.34212 7.45091C6.14628 7.45091 6.79437 8.18868 6.78053 9.08843C6.78178 9.98688 6.14628 10.7247 5.34212 10.7247ZM10.6578 10.7247C9.86752 10.7247 9.21941 9.98688 9.21941 9.08843C9.21941 8.18998 9.85366 7.45091 10.6578 7.45091C11.462 7.45091 12.1101 8.18868 12.0962 9.08843C12.0962 9.98688 11.462 10.7247 10.6578 10.7247Z" fill="#CD9AFF"/>
</svg>
