<svg width="16" height="16" viewBox="0 0 16 16" fill="none" xmlns="http://www.w3.org/2000/svg">
<g clip-path="url(#clip0_105_26)">
<path fill-rule="evenodd" clip-rule="evenodd" d="M7.78922 0.5C3.48198 0.5 0 4.00765 0 8.3471C0 11.8158 2.23103 14.7521 5.32605 15.7913C5.71301 15.8694 5.85475 15.6224 5.85475 15.4147C5.85475 15.2328 5.842 14.6092 5.842 13.9595C3.67522 14.4273 3.22401 13.0241 3.22401 13.0241C2.8758 12.1146 2.35985 11.8809 2.35985 11.8809C1.65067 11.4002 2.41151 11.4002 2.41151 11.4002C3.19818 11.4522 3.61097 12.2057 3.61097 12.2057C4.30724 13.4008 5.42921 13.0631 5.88058 12.8552C5.94499 12.3485 6.15147 11.9978 6.37069 11.8029C4.64254 11.621 2.8243 10.9455 2.8243 7.93128C2.8243 7.07382 3.13361 6.37229 3.62372 5.82669C3.5464 5.63186 3.27551 4.82621 3.70121 3.74793C3.70121 3.74793 4.3589 3.54002 5.84184 4.55341C6.47674 4.38164 7.1315 4.29426 7.78922 4.29353C8.44691 4.29353 9.11735 4.38457 9.73645 4.55341C11.2195 3.54002 11.8772 3.74793 11.8772 3.74793C12.3029 4.82621 12.0319 5.63186 11.9546 5.82669C12.4576 6.37229 12.7541 7.07382 12.7541 7.93128C12.7541 10.9455 10.9359 11.6079 9.19483 11.8029C9.47863 12.0497 9.72353 12.5174 9.72353 13.258C9.72353 14.3103 9.71078 15.1548 9.71078 15.4145C9.71078 15.6224 9.85268 15.8694 10.2395 15.7915C13.3345 14.7519 15.5655 11.8158 15.5655 8.3471C15.5783 4.00765 12.0835 0.5 7.78922 0.5Z" fill="#CD9AFF"/>
</g>
<defs>
<clipPath id="clip0_105_26">
<rect width="15.625" height="15.3061" fill="white" transform="translate(0 0.5)"/>
</clipPath>
</defs>
</svg>
