<svg width="126" height="25" viewBox="0 0 126 25" fill="none" xmlns="http://www.w3.org/2000/svg">
<g clip-path="url(#clip0_11_598)">
<path fill-rule="evenodd" clip-rule="evenodd" d="M68.4483 0.30645L60.9927 13.492L53.5303 0.30645H48.3751V24.6935H53.4903V10.0622L60.9893 23.3104L68.5153 10.0125V24.6935H73.7159V0.30645H68.4483Z" fill="white"/>
<path fill-rule="evenodd" clip-rule="evenodd" d="M119.721 0.30645L100.582 24.6935H106.638L125.784 0.30645H119.721Z" fill="white"/>
<path fill-rule="evenodd" clip-rule="evenodd" d="M100.588 0.30645L119.728 24.6935H125.712L106.628 0.30645H100.588Z" fill="white"/>
<path fill-rule="evenodd" clip-rule="evenodd" d="M0 0.389809L6.55751 6.97607H18.9767L12.4191 0.389809H0Z" fill="url(#paint0_linear_11_598)"/>
<path fill-rule="evenodd" clip-rule="evenodd" d="M17.3135 17.7782L24.1157 24.6091H36.534L29.7326 17.7782H17.3135Z" fill="url(#paint1_linear_11_598)"/>
<path fill-rule="evenodd" clip-rule="evenodd" d="M24.1145 0.389809L0 24.6071H12.4191L36.5336 0.389809H24.1145Z" fill="#BB77FF"/>
<path fill-rule="evenodd" clip-rule="evenodd" d="M75.3358 0.30645L86.58 20.1933L88.9917 14.5886L80.9091 0.30645H75.3358Z" fill="white"/>
<path fill-rule="evenodd" clip-rule="evenodd" d="M93.791 0.30645L81.7481 24.6935H87.3084L99.3513 0.30645H93.791Z" fill="white"/>
</g>
<defs>
<linearGradient id="paint0_linear_11_598" x1="-2.85028" y1="4.45089" x2="0.278491" y2="13.4657" gradientUnits="userSpaceOnUse">
<stop stop-color="#BB77FF"/>
<stop offset="1" stop-color="#D8D8D8" stop-opacity="0.01"/>
</linearGradient>
<linearGradient id="paint1_linear_11_598" x1="7.74315" y1="21.018" x2="11.8599" y2="32.8806" gradientUnits="userSpaceOnUse">
<stop stop-color="white" stop-opacity="0.01"/>
<stop offset="1" stop-color="#BB77FF"/>
</linearGradient>
<clipPath id="clip0_11_598">
<rect width="126" height="24.3871" fill="white" transform="translate(0 0.30645)"/>
</clipPath>
</defs>
</svg>
